<svg xmlns="http://www.w3.org/2000/svg" width="527.931" height="404.7" viewBox="0 0 527.931 404.7">
  <g id="layer1" transform="translate(-50.336 -37.06)">
    <path id="path846" d="M254.044,440.215c4.639-1.78,6.46-10.4,2.941-13.92-3.721-3.721-10.169,1.72-10.169,8.582C246.817,442.68,247.092,442.883,254.044,440.215Zm25.649-6.289c0-2.364,1.478-3.291,3.377-2.118,2.009,1.242,2.844.488,2.06-1.861-.749-2.248-5.744-3.954-11.6-3.961-8.2-.009-10.468,1.273-11.209,6.326-.781,5.325.534,6.3,8.219,6.079,5.747-.164,9.149-1.823,9.149-4.465Zm-14.944-.863a3.09,3.09,0,0,1,3.165-2.989c1.741,0,2.334,1.345,1.318,2.989s-2.44,2.989-3.165,2.989S264.749,434.707,264.749,433.063Zm41.363-1.635c4.688-10.29,4.673-10.32-5.238-10.32-8.434,0-8.6.281-5.322,8.966,4.132,10.948,6.076,11.2,10.56,1.354Zm15.424,1.811c0-3.191-1.193-6.538-2.65-7.439-3.64-2.25-10.276,6.262-7.891,10.12C314.266,441.214,321.536,439.365,321.536,433.239Zm71.73,3.432c0-1.356-1.921-5.076-4.27-8.267-3.942-5.356-4.423-5.406-6.268-.648-1.734,4.472-2.564,4.587-6.277.874-5.425-5.425-13.21-2.669-11.111,3.933.922,2.9-.954,1.867-4.486-2.469-5.414-6.646-6.287-6.889-8.07-2.242-2.188,5.7-7.8,7.274-6.59,1.849a4.4,4.4,0,0,0-2.989-4.732c-2.113-.775-3.775,1.011-3.827,4.11-.084,5.066-.315,5.095-3.068.373-3.672-6.3-10.375-4.2-10.949,3.426-.392,5.2,2.208,5.66,33.741,5.948,18.791.171,34.165-.8,34.165-2.154Zm-23.91-3.608a3.09,3.09,0,0,1,3.165-2.989c1.741,0,2.334,1.345,1.318,2.989s-2.44,2.989-3.165,2.989S369.356,434.706,369.356,433.063Zm44.831,4.287c0-.93-1.365-4.242-3.034-7.361-3.69-6.894-10.482-4.964-11.094,3.152-.33,4.382,1.43,5.9,6.842,5.9C410.909,439.04,414.187,438.279,414.187,437.349Zm26.9,0c0-.93-1.522-4.535-3.382-8.011-3.275-6.12-3.511-6.143-7.472-.727-3.918,5.358-4.09,5.318-4.09-.956,0-3.6-1.345-6.549-2.989-6.549s-2.989,4.035-2.989,8.966c0,8.255.83,8.966,10.461,8.966C436.379,439.04,441.086,438.279,441.086,437.349Zm23.671-3.54c2.9-4.981,3.051-4.981,3.137,0,.05,2.877,1.2,5.23,2.562,5.23s1.859-4.171,1.111-9.269c-.834-5.684-2.224-7.873-3.592-5.658-1.6,2.583-2.813,2.669-4.276.3-1.124-1.819-5.095-3.308-8.822-3.308-5.831,0-6.594,1.253-5.462,8.966,1.5,10.239,10.306,12.382,15.342,3.736Zm-8.727-3.736c0-5.579.8-6.376,3.587-3.587s2.789,4.383,0,7.173-3.587,1.993-3.587-3.587Zm32.877,3.912c0,6.9,11.844,6.731,12.3-.176.33-4.981.412-4.981,1.714,0,.752,2.877,2.692,5.23,4.313,5.23s2.2-1.2,1.292-2.676.356-3.447,2.812-4.389c2.582-.991,4.466-.036,4.466,2.261,0,3.031,7.1,4.015,29.888,4.144l29.888.17v-8.721c0-10.2-3.886-11.223-9.92-2.609-3.572,5.1-4.571,5.356-6.034,1.545a4.768,4.768,0,0,0-6.332-2.81c-2.518.966-3.835,2.961-2.926,4.433s.323,2.676-1.3,2.676-3.387-2.783-3.912-6.183L544.2,420.7l-6.725,6.3-6.725,6.3-.046-6.841c-.023-3.763-1.034-5.451-2.242-3.751s-9.593,3.27-18.634,3.491c-39.9.973-36.451.19-32.588,7.407,3.37,6.3,3.625,6.328,7.577.923,3.628-4.962,4.09-5.023,4.09-.539Zm49.314-.923c-1.016-1.644-.423-2.989,1.318-2.989a3.09,3.09,0,0,1,3.165,2.989c0,1.644-.593,2.989-1.318,2.989s-2.149-1.345-3.165-2.989Zm28.393,0a3.09,3.09,0,0,1,3.165-2.989c1.741,0,2.334,1.345,1.318,2.989s-2.44,2.989-3.165,2.989S566.615,434.706,566.615,433.063ZM206.6,398.828c10.05-10.05,10.514-35.222.838-45.522-13.476-14.344-39.835-5.425-41.387,14-1.971,24.677,6.777,38.854,23.975,38.854a24.092,24.092,0,0,0,16.574-7.336Zm-26.865-8.273c-10.063-14.367-3.972-35.2,10.291-35.2,5.6,0,9.872,2.085,11.85,5.781C213.122,382.142,192.779,409.173,179.739,390.555Zm93.312,10.956c7.4-5.185,9.011-16.269,2.361-16.269-2.355,0-5.16,2.768-6.234,6.152-1.326,4.179-4.027,5.856-8.421,5.23-4.9-.7-6.7-3.318-7.419-10.83-.993-10.348,3.986-19.466,9.606-17.592,1.8.6,3.28,3.649,3.287,6.775.015,7.125,9.074,9.255,11.581,2.723,2.28-5.942-2.248-15.02-8.734-17.508-21.638-8.3-37.693,27.951-18.371,41.485C258.865,407.391,264.718,407.348,273.05,401.511Zm86.293.267c4.649-3.256,6.329-7.768,6.525-17.522.306-15.224-3.735-21.817-15.042-24.541-16.592-4-30.889,23.8-19.577,38.062C338.273,406.633,350.023,408.307,359.344,401.778ZM339.468,391.22c-2.962-5.535-2.273-5.978,9.324-5.978,12.334,0,12.442.09,7.114,5.978-2.975,3.288-7.171,5.977-9.324,5.977S341.228,394.507,339.468,391.22Zm0-17.613c0-5.175,10.047-6.5,14.621-1.924,4.131,4.131,3.628,4.593-5.014,4.593C343.791,376.276,339.468,375.075,339.468,373.607Zm78.079,26.149a13.543,13.543,0,0,0,1.867-8.289c-1.132-6.448-7.53-7.263-9.112-1.16-.769,2.968-1.555-.32-1.745-7.307-.229-8.368-2.386-14.742-6.324-18.68-6.852-6.852-8.585-7.111-19.593-2.926-6.887,2.618-7.778,4.3-6.27,11.839.967,4.833.457,9.591-1.133,10.574-4.818,2.977-3.238,15.887,2.325,19C384.936,406.936,414.37,404.689,417.547,399.756ZM383.3,395.2c-3.773-3.773-1.973-6.331,5.832-8.29,9.582-2.4,12.2-.319,7.179,5.727-3.979,4.794-9.661,5.913-13.011,2.563Zm3.985-21.918c0-5.743,5.845-8.1,9.937-4.011,2.263,2.263-3.395,9.988-7.314,9.988C388.469,379.265,387.289,376.575,387.289,373.287Zm56.983,29.783c3.774-2.02,5.781-6.256,5.781-12.2,0-10.494-6.887-10.624-8.427-.159-1.74,11.825-6.517,6.724-6.517-6.959,0-11.457.886-13.449,5.978-13.449,3.321,0,5.978-1.993,5.978-4.483,0-2.466-2.533-4.483-5.629-4.483-3.115,0-6.327-2.669-7.192-5.978-1.928-7.372-7.62-7.789-10.218-.747-1.061,2.877-3.362,6.183-5.112,7.348-2.193,1.459-2.028,3.271.529,5.828,2.041,2.041,3.711,8.523,3.711,14.4,0,10.8,6.769,23.977,12.321,23.977,1.659,0,5.617-1.392,8.8-3.094ZM514.5,389.013c4.172-9.433,9.535-18.242,11.917-19.576,9.943-5.564,2.869-8.105-22.566-8.105-21.918,0-26.9.83-26.9,4.483a4.307,4.307,0,0,0,4.077,4.483c2.242,0,6.466,6.388,9.386,14.2,10.112,27.04,13.817,27.735,24.085,4.518Zm-15.639-9.556c-2.735-7.246-2.5-9.085,1.339-10.559,6.779-2.6,10.249,2.371,7.976,11.428C505.6,390.568,502.961,390.321,498.861,379.457Zm77.68,20.29c4.039-6.4.471-14.866-5.329-12.64-3.679,1.412-4.6-.7-4.6-10.585,0-10.706-1.093-12.773-8.219-15.536-11.375-4.411-23.163,2.168-23.163,12.927,0,4.295-1.009,8.825-2.242,10.067-3.654,3.681-2.562,12.47,2.133,17.165,6.135,6.135,37.328,5.081,41.416-1.4ZM542.7,393.063c0-2.274,2.967-4.911,6.594-5.859,8-2.092,9.049-1.283,6.606,5.083-2.282,5.947-13.2,6.59-13.2.776Zm2.989-19.776c0-3.288,1.938-5.978,4.307-5.978,6.24,0,9.117,6.2,4.3,9.255-6.4,4.052-8.6,3.212-8.6-3.277ZM119.6,399.206c6.159-4.5,7.307-19.46,1.757-22.89-2.75-1.7-2.847-3.809-.384-8.41,7.378-13.786-3.113-21.518-29.2-21.518-17.927,0-27.5,4.915-15.617,8.022,5.555,1.453,6.278,3.849,6.278,20.814,0,14.285-1.143,19.611-4.483,20.893-2.466.946-4.483,2.921-4.483,4.389,0,4.3,40.019,3.168,46.128-1.3Zm-26.2-4c-3.526-3.526-2.121-16.078,1.975-17.65,6.033-2.315,19.942,3.964,19.942,9,0,7.325-16.665,13.9-21.918,8.647ZM91.4,362.826c0-6.327,1.388-7.472,9.06-7.472,5.55,0,9.771,1.854,10.9,4.785,2.146,5.592-3.685,10.048-13.232,10.113-5.193.036-6.725-1.656-6.725-7.426Zm71.73,37.708c0-1.452-2.69-3.344-5.978-4.2-5.2-1.36-5.978-4.077-5.978-20.921,0-17.154.715-19.545,6.278-21,10.93-2.858,2.928-8.022-12.432-8.022-10.581,0-14.767,1.172-14.767,4.135,0,2.274,2.69,4.838,5.978,5.7,5.165,1.351,5.978,4.077,5.978,20.055s-.812,18.7-5.978,20.055c-11.6,3.034-5.776,6.844,10.461,6.844,9.041,0,16.438-1.188,16.438-2.64Zm68.741-58.765V280.363l-11.208,2.377c-6.164,1.307-23.346,2.334-38.182,2.281-24.693-.088-28.864-1-49.314-10.8-27.858-13.35-47.263-32.307-60.83-59.424C48.684,167.511,57.7,108.293,94.147,71.6l13.207-13.3,8.214,26.351c8.867,28.444,24.194,53.646,39.92,65.641,8.854,6.753,9.933,9.3,11.332,26.723,4.808,59.892,61.319,113.427,124.289,117.744,28.372,1.945,49.056-2.331,73.68-15.232,46.838-24.538,76.782-78.39,72.433-130.262-3.329-39.713-18.18-68.925-46.981-92.411l-16.4-13.375-2.374,19.2c-3.25,26.286-17.321,55.6-35.086,73.1-16.186,15.942-14.744,16.824-19.395-11.87-4.743-29.264-31.306-64.647-59.934-79.834L243.828,37.06,229.8,44.5c-30.112,15.974-53.061,47.726-61.568,85.185l-3.764,16.574-10.743-11.269c-19.4-20.354-35.422-57.745-35.422-82.684,0-12.07-6.991-9.571-26.427,9.447C14.258,137.7,50.8,267.571,156.814,292.573c9.882,2.331,25.751,3.194,41.1,2.237l25-1.56v54.962c0,46.862.661,54.962,4.483,54.962,3.84,0,4.483-8.815,4.483-61.4ZM263.721,280.9c-35.557-11.754-62.712-36.128-78.806-70.734-7.424-15.963-8.23-20.938-8.2-50.58.03-27.078,1.223-35.853,6.774-49.754,7.765-19.446,25.189-40.485,44.575-53.823,13.175-9.065,13.7-9.166,23.455-4.515,14.3,6.817,33.245,24.787,42.134,39.955,9.85,16.808,18.915,46.008,18.915,60.932,0,6.429.789,11.689,1.753,11.689,4.28,0,28.5-19.638,36.5-29.592,11.847-14.741,23.547-38.359,26.14-52.764,3.863-21.463,5.551-22.108,19.494-7.451,15.821,16.632,25.418,37.414,29.924,64.8,9.183,55.817-20.671,111.735-72.38,135.569-27.669,12.754-63.2,15.22-90.284,6.267Zm45.86,119.6c0-1.468-2.017-3.443-4.483-4.389-5.163-1.981-5.921-14.557-1.389-23.026,4.224-7.892,9.448-7.3,8.3.944-.7,5.044.559,6.725,5.042,6.725,7.645,0,9.532-10.962,3.01-17.484-3.633-3.633-8.151-4.347-18.839-2.974-15.813,2.031-22.133,5.818-14.559,8.725,6.763,2.6,7.217,28.171.5,28.171-2.466,0-4.483,1.345-4.483,2.989s6.052,2.989,13.449,2.989,13.449-1.2,13.449-2.669Zm170.36-.32c0-1.644-2.018-2.989-4.483-2.989-3.487,0-4.483-3.985-4.483-17.933V361.33h-8.966q-8.966,0-8.966,4.483a4.5,4.5,0,0,0,4.483,4.483c3.244,0,4.483,3.331,4.483,12.049,0,7.953-1.524,12.634-4.483,13.769-8.866,3.4-4.222,7.058,8.966,7.058,7.4,0,13.449-1.345,13.449-2.989Zm-8.966-46.326c0-2.491-2.657-4.483-5.978-4.483s-5.978,1.993-5.978,4.483,2.657,4.483,5.978,4.483S470.974,356.349,470.974,353.858Z" transform="translate(0)"/>
  </g>
</svg>
